<svg version="1.1" xmlns="http://www.w3.org/2000/svg" viewBox="0 0 1035 680" width="1035" height="680">
  <!-- svg-source:excalidraw -->
  
  <defs>
    <style class="style-fonts">
      @font-face {
        font-family: "Virgil";
        src: url("https://unpkg.com/@excalidraw/excalidraw@undefined/dist/excalidraw-assets/Virgil.woff2");
      }
      @font-face {
        font-family: "Cascadia";
        src: url("https://unpkg.com/@excalidraw/excalidraw@undefined/dist/excalidraw-assets/Cascadia.woff2");
      }
      @font-face {
        font-family: "Assistant";
        src: url("https://unpkg.com/@excalidraw/excalidraw@undefined/dist/excalidraw-assets/Assistant-Regular.woff2");
      }
    </style>
    
  </defs>
  <rect x="0" y="0" width="1035" height="680" fill="#ffffff"/><g transform="translate(320 10) rotate(0 200 17.5)"><text x="200" y="0" font-family="Virgil, Segoe UI Emoji" font-size="26px" fill="#1e293b" text-anchor="middle" style="white-space: pre;" direction="ltr" dominant-baseline="text-before-edge">web-RSync Architecture</text></g><g stroke-linecap="round" transform="translate(10 85) rotate(0 117.5 230)"><path d="M32 0 C67.4 0.46, 109.66 0.2, 203 0 C222.14 -0.58, 234.97 9.74, 235 32 C234.28 136.8, 236.03 237.77, 235 428 C236.53 452.46, 225.63 456.64, 203 460 C155.2 456.46, 111.45 457.66, 32 460 C11.88 459.93, 0.36 445.91, 0 428 C-2.58 283.21, -0.5 137.28, 0 32 C-0.95 13.37, 9.28 2.25, 32 0" stroke="none" stroke-width="0" fill="#dbe4ff"/><path d="M32 0 C64.86 0.55, 100.26 0.68, 203 0 M32 0 C78.22 0.7, 125.75 -0.27, 203 0 M203 0 C225.3 1.45, 235.77 11.03, 235 32 M203 0 C226 1.49, 233.58 10.75, 235 32 M235 32 C233.11 177.23, 232.98 323.39, 235 428 M235 32 C233.1 167.37, 232.93 302.83, 235 428 M235 428 C235.13 447.88, 225.22 458.26, 203 460 M235 428 C234.59 451.08, 222.25 459.03, 203 460 M203 460 C135.85 458.3, 72.11 460.36, 32 460 M203 460 C134.59 461.94, 66.99 460.83, 32 460 M32 460 C12.09 458.97, -1.75 450.62, 0 428 M32 460 C11.56 458.22, 1.92 449.85, 0 428 M0 428 C1.14 282.13, 1.21 137.69, 0 32 M0 428 C1.55 302.27, 2.15 176.12, 0 32 M0 32 C0.03 12.31, 9.96 -0.1, 32 0 M0 32 C1.75 8.48, 11.85 -0.48, 32 0" stroke="#1971c2" stroke-width="2" fill="none"/></g><g transform="translate(30 97) rotate(0 97.5 12.5)"><text x="97.5" y="0" font-family="Virgil, Segoe UI Emoji" font-size="17px" fill="#1971c2" text-anchor="middle" style="white-space: pre;" direction="ltr" dominant-baseline="text-before-edge">Browser</text></g><g transform="translate(24 127) rotate(0 103.5 195)"><text x="0" y="0" font-family="Virgil, Segoe UI Emoji" font-size="11.5px" fill="#1e3a5f" text-anchor="start" style="white-space: pre;" direction="ltr" dominant-baseline="text-before-edge">Vue 3 · TypeScript</text><text x="0" y="15.525" font-family="Virgil, Segoe UI Emoji" font-size="11.5px" fill="#1e3a5f" text-anchor="start" style="white-space: pre;" direction="ltr" dominant-baseline="text-before-edge">Vite · Pinia · Vue Router</text><text x="0" y="31.05" font-family="Virgil, Segoe UI Emoji" font-size="11.5px" fill="#1e3a5f" text-anchor="start" style="white-space: pre;" direction="ltr" dominant-baseline="text-before-edge">@mdi/font 7.4</text><text x="0" y="46.575" font-family="Virgil, Segoe UI Emoji" font-size="11.5px" fill="#1e3a5f" text-anchor="start" style="white-space: pre;" direction="ltr" dominant-baseline="text-before-edge"/><text x="0" y="62.1" font-family="Virgil, Segoe UI Emoji" font-size="11.5px" fill="#1e3a5f" text-anchor="start" style="white-space: pre;" direction="ltr" dominant-baseline="text-before-edge">Dark mode (default)</text><text x="0" y="77.625" font-family="Virgil, Segoe UI Emoji" font-size="11.5px" fill="#1e3a5f" text-anchor="start" style="white-space: pre;" direction="ltr" dominant-baseline="text-before-edge">Light mode · useTheme.ts</text><text x="0" y="93.15" font-family="Virgil, Segoe UI Emoji" font-size="11.5px" fill="#1e3a5f" text-anchor="start" style="white-space: pre;" direction="ltr" dominant-baseline="text-before-edge">preference in localStorage</text><text x="0" y="108.675" font-family="Virgil, Segoe UI Emoji" font-size="11.5px" fill="#1e3a5f" text-anchor="start" style="white-space: pre;" direction="ltr" dominant-baseline="text-before-edge"/><text x="0" y="124.2" font-family="Virgil, Segoe UI Emoji" font-size="11.5px" fill="#1e3a5f" text-anchor="start" style="white-space: pre;" direction="ltr" dominant-baseline="text-before-edge">Mobile-responsive layout</text><text x="0" y="139.725" font-family="Virgil, Segoe UI Emoji" font-size="11.5px" fill="#1e3a5f" text-anchor="start" style="white-space: pre;" direction="ltr" dominant-baseline="text-before-edge">Hamburger menu (≤768px)</text><text x="0" y="155.25" font-family="Virgil, Segoe UI Emoji" font-size="11.5px" fill="#1e3a5f" text-anchor="start" style="white-space: pre;" direction="ltr" dominant-baseline="text-before-edge">Slide-in sidebar</text><text x="0" y="170.775" font-family="Virgil, Segoe UI Emoji" font-size="11.5px" fill="#1e3a5f" text-anchor="start" style="white-space: pre;" direction="ltr" dominant-baseline="text-before-edge"/><text x="0" y="186.3" font-family="Virgil, Segoe UI Emoji" font-size="11.5px" fill="#1e3a5f" text-anchor="start" style="white-space: pre;" direction="ltr" dominant-baseline="text-before-edge">Views:</text><text x="0" y="201.82500000000002" font-family="Virgil, Segoe UI Emoji" font-size="11.5px" fill="#1e3a5f" text-anchor="start" style="white-space: pre;" direction="ltr" dominant-baseline="text-before-edge">  Dashboard · Tasks</text><text x="0" y="217.35" font-family="Virgil, Segoe UI Emoji" font-size="11.5px" fill="#1e3a5f" text-anchor="start" style="white-space: pre;" direction="ltr" dominant-baseline="text-before-edge">  Hosts · Job History</text><text x="0" y="232.875" font-family="Virgil, Segoe UI Emoji" font-size="11.5px" fill="#1e3a5f" text-anchor="start" style="white-space: pre;" direction="ltr" dominant-baseline="text-before-edge">  Help</text><text x="0" y="248.4" font-family="Virgil, Segoe UI Emoji" font-size="11.5px" fill="#1e3a5f" text-anchor="start" style="white-space: pre;" direction="ltr" dominant-baseline="text-before-edge"/><text x="0" y="263.925" font-family="Virgil, Segoe UI Emoji" font-size="11.5px" fill="#1e3a5f" text-anchor="start" style="white-space: pre;" direction="ltr" dominant-baseline="text-before-edge">TaskForm:</text><text x="0" y="279.45" font-family="Virgil, Segoe UI Emoji" font-size="11.5px" fill="#1e3a5f" text-anchor="start" style="white-space: pre;" direction="ltr" dominant-baseline="text-before-edge">  Host pickers (src/dest)</text><text x="0" y="294.975" font-family="Virgil, Segoe UI Emoji" font-size="11.5px" fill="#1e3a5f" text-anchor="start" style="white-space: pre;" direction="ltr" dominant-baseline="text-before-edge">  Mount points panel</text><text x="0" y="310.5" font-family="Virgil, Segoe UI Emoji" font-size="11.5px" fill="#1e3a5f" text-anchor="start" style="white-space: pre;" direction="ltr" dominant-baseline="text-before-edge">  Dry-run preview</text><text x="0" y="326.02500000000003" font-family="Virgil, Segoe UI Emoji" font-size="11.5px" fill="#1e3a5f" text-anchor="start" style="white-space: pre;" direction="ltr" dominant-baseline="text-before-edge">  Flag reference panel</text><text x="0" y="341.55" font-family="Virgil, Segoe UI Emoji" font-size="11.5px" fill="#1e3a5f" text-anchor="start" style="white-space: pre;" direction="ltr" dominant-baseline="text-before-edge"/><text x="0" y="357.075" font-family="Virgil, Segoe UI Emoji" font-size="11.5px" fill="#1e3a5f" text-anchor="start" style="white-space: pre;" direction="ltr" dominant-baseline="text-before-edge">api/client.ts (Axios)</text></g><g stroke-linecap="round" transform="translate(275 75) rotate(0 250 235)"><path d="M32 0 C205.24 2.44, 378.84 0.96, 468 0 C490.23 0.67, 502.68 12.51, 500 32 C502.19 142.67, 499.13 253.7, 500 438 C496.78 462.56, 491.08 470.95, 468 470 C345 472.28, 219.13 471.07, 32 470 C8.26 471.82, 3.59 458.52, 0 438 C-3.45 339.22, -3.1 235.31, 0 32 C-2.7 13.98, 12.96 1.85, 32 0" stroke="none" stroke-width="0" fill="#f3f0ff"/><path d="M32 0 C120.33 0.42, 206.2 0.34, 468 0 M32 0 C205.98 0.64, 379.39 0.46, 468 0 M468 0 C487.87 -0.16, 501.78 10.15, 500 32 M468 0 C489.97 -0.45, 502.13 9.66, 500 32 M500 32 C502.23 154.05, 502.47 276, 500 438 M500 32 C502.12 155.47, 502.06 279.63, 500 438 M500 438 C501.07 457.62, 488.15 471.95, 468 470 M500 438 C500.26 460.4, 490.2 468.73, 468 470 M468 470 C322.44 471.53, 176.36 471.57, 32 470 M468 470 C309.6 471.84, 150.32 471.37, 32 470 M32 470 C11.3 470.51, -1.15 458.86, 0 438 M32 470 C11.09 468.78, 1.82 457.88, 0 438 M0 438 C0.71 292.03, -1.36 144.35, 0 32 M0 438 C-2.04 323.26, -2.23 208.21, 0 32 M0 32 C1.18 11.96, 10.36 0.42, 32 0 M0 32 C-2.16 12.74, 8.71 1.39, 32 0" stroke="#6741d9" stroke-width="2" fill="none"/></g><g transform="translate(285 85) rotate(0 240 12.5)"><text x="240" y="0" font-family="Virgil, Segoe UI Emoji" font-size="17px" fill="#6741d9" text-anchor="middle" style="white-space: pre;" direction="ltr" dominant-baseline="text-before-edge">FastAPI + uvicorn  (:8000)</text></g><g stroke-linecap="round" transform="translate(290 123) rotate(0 107.5 34)"><path d="M17 0 C59.56 0.29, 105.05 -0.22, 198 0 C208.54 2.44, 218.54 7.42, 215 17 C213.74 29.46, 212.65 39.36, 215 51 C214.45 64.99, 208.32 64.89, 198 68 C136.66 67.55, 72.59 69.96, 17 68 C4.5 71.46, -2.89 59.1, 0 51 C2.21 38.31, 2.27 25.26, 0 17 C1.7 7.46, 6.5 0.89, 17 0" stroke="none" stroke-width="0" fill="#c3fae8"/><path d="M17 0 C52.53 0.82, 91.14 1.08, 198 0 M17 0 C79.66 -1.4, 141.96 -1.33, 198 0 M198 0 C209.27 0.9, 214.54 4.4, 215 17 M198 0 C210.37 0.67, 214.46 3.52, 215 17 M215 17 C215.32 29.02, 214.89 38.32, 215 51 M215 17 C213.95 25.8, 215.34 35.91, 215 51 M215 51 C213.26 61.43, 209.11 66.51, 198 68 M215 51 C216.48 63.52, 207.47 68.35, 198 68 M198 68 C130.45 68.39, 63.71 68.51, 17 68 M198 68 C126.62 69.22, 53.86 68.99, 17 68 M17 68 C6.52 67.93, -1.5 62.92, 0 51 M17 68 C5.15 66.75, 1.54 61.07, 0 51 M0 51 C0.57 40.74, 0.81 29.45, 0 17 M0 51 C-0.54 42.78, -0.45 34.1, 0 17 M0 17 C-1.95 6.95, 6.26 1.81, 17 0 M0 17 C1.2 3.6, 5.73 1.34, 17 0" stroke="#0ca678" stroke-width="1" fill="none"/></g><g transform="translate(295 137) rotate(0 102.5 20)"><text x="102.5" y="0" font-family="Virgil, Segoe UI Emoji" font-size="12px" fill="#0b7a59" text-anchor="middle" style="white-space: pre;" direction="ltr" dominant-baseline="text-before-edge">SSE log streaming</text><text x="102.5" y="15.600000000000001" font-family="Virgil, Segoe UI Emoji" font-size="12px" fill="#0b7a59" text-anchor="middle" style="white-space: pre;" direction="ltr" dominant-baseline="text-before-edge">(sse-starlette)</text></g><g stroke-linecap="round" transform="translate(520 123) rotate(0 117.5 34)"><path d="M17 0 C71.75 3.99, 131.12 -0.77, 218 0 C226.86 -2.99, 232.19 7.33, 235 17 C238.4 31.66, 234.52 40.57, 235 51 C237.12 64.41, 232.77 68.03, 218 68 C169.63 72.14, 127.92 72.15, 17 68 C5.73 65.9, -2.17 63.88, 0 51 C-1.79 44.54, -2.3 39.4, 0 17 C-1.1 5.95, 5.05 -0.06, 17 0" stroke="none" stroke-width="0" fill="#c3fae8"/><path d="M17 0 C58.18 -1.85, 98.46 -1.26, 218 0 M17 0 C73.75 0.4, 132.65 -0.93, 218 0 M218 0 C230.68 1.96, 236.3 7.66, 235 17 M218 0 C230.77 1.8, 236.39 6.99, 235 17 M235 17 C234.76 30.71, 233.45 43.16, 235 51 M235 17 C235.2 26.45, 234.1 35.3, 235 51 M235 51 C234.45 62.23, 230.08 67.07, 218 68 M235 51 C233.1 63.65, 229.34 69.97, 218 68 M218 68 C138.86 68.08, 58.52 68.22, 17 68 M218 68 C172.16 68.45, 127.18 68.89, 17 68 M17 68 C6.75 67.36, -1.85 63.97, 0 51 M17 68 C4.21 66.71, 1.26 61.27, 0 51 M0 51 C-0.68 41.07, -0.48 28.19, 0 17 M0 51 C0.2 36.86, 0.72 24.36, 0 17 M0 17 C-1.07 6.94, 7.16 -0.81, 17 0 M0 17 C-0.05 4.06, 7.76 1.28, 17 0" stroke="#0ca678" stroke-width="1" fill="none"/></g><g transform="translate(525 137) rotate(0 112.5 20)"><text x="112.5" y="0" font-family="Virgil, Segoe UI Emoji" font-size="12px" fill="#0b7a59" text-anchor="middle" style="white-space: pre;" direction="ltr" dominant-baseline="text-before-edge">APScheduler</text><text x="112.5" y="15.600000000000001" font-family="Virgil, Segoe UI Emoji" font-size="12px" fill="#0b7a59" text-anchor="middle" style="white-space: pre;" direction="ltr" dominant-baseline="text-before-edge">(cron jobs)</text></g><g stroke-linecap="round" transform="translate(290 209) rotate(0 107.5 40)"><path d="M20 0 C73.77 -5.31, 127.68 -0.98, 195 0 C211.38 -1.22, 213.05 8.24, 215 20 C214.57 31.4, 215.1 41.05, 215 60 C212.59 74.83, 209.01 83.17, 195 80 C140.78 82.56, 89.69 80.17, 20 80 C7.97 79.54, -1.45 72.46, 0 60 C0.11 51.13, -0.97 38.05, 0 20 C3.31 5.43, 4.6 -1.01, 20 0" stroke="none" stroke-width="0" fill="#ffc9c9"/><path d="M20 0 C53.76 -0.75, 90.45 0.31, 195 0 M20 0 C59.79 2.28, 100.73 1.23, 195 0 M195 0 C207.08 -0.99, 214.05 7.91, 215 20 M195 0 C210.17 -1.68, 213.72 6.85, 215 20 M215 20 C213.52 29.84, 215.33 35.87, 215 60 M215 20 C214.46 29.56, 214.85 38.6, 215 60 M215 60 C215.64 74.03, 210.05 79.63, 195 80 M215 60 C214.32 74.77, 210.21 78.99, 195 80 M195 80 C153.88 79.41, 113.28 79.61, 20 80 M195 80 C149.11 79.65, 104.52 80.85, 20 80 M20 80 C7.97 78.78, 1.8 72.03, 0 60 M20 80 C8.87 78.68, 0.97 72.46, 0 60 M0 60 C1.36 48.71, 1.52 36.54, 0 20 M0 60 C0.96 46.69, -0.08 33.12, 0 20 M0 20 C-0.2 7.93, 5.05 0.58, 20 0 M0 20 C-1.29 5.51, 6.19 1.23, 20 0" stroke="#c92a2a" stroke-width="1" fill="none"/></g><g transform="translate(295 223) rotate(0 102.5 26)"><text x="102.5" y="0" font-family="Virgil, Segoe UI Emoji" font-size="12px" fill="#862e2e" text-anchor="middle" style="white-space: pre;" direction="ltr" dominant-baseline="text-before-edge">rsync runner</text><text x="102.5" y="15.600000000000001" font-family="Virgil, Segoe UI Emoji" font-size="12px" fill="#862e2e" text-anchor="middle" style="white-space: pre;" direction="ltr" dominant-baseline="text-before-edge">(subprocess)</text><text x="102.5" y="31.200000000000003" font-family="Virgil, Segoe UI Emoji" font-size="12px" fill="#862e2e" text-anchor="middle" style="white-space: pre;" direction="ltr" dominant-baseline="text-before-edge">log file write</text></g><g stroke-linecap="round" transform="translate(520 209) rotate(0 117.5 40)"><path d="M20 0 C87.22 -1.29, 156.78 -1.75, 215 0 C229.7 0.55, 233.9 8.15, 235 20 C232.15 33.91, 237.09 42.87, 235 60 C235.25 74.25, 226.26 79.11, 215 80 C142.01 73.34, 75.1 75.75, 20 80 C9.21 81.17, -0.73 70.04, 0 60 C3.38 42.85, 1.73 30.36, 0 20 C0.51 3.92, 3.14 -1.97, 20 0" stroke="none" stroke-width="0" fill="#ffec99"/><path d="M20 0 C59.49 0.14, 97.86 1.59, 215 0 M20 0 C92.87 -1.5, 165.65 -0.11, 215 0 M215 0 C228.49 0.07, 235.81 7.17, 235 20 M215 0 C230.56 -0.56, 235.65 5.71, 235 20 M235 20 C237.02 27.74, 233.96 41.13, 235 60 M235 20 C235.73 28.09, 235.62 37.74, 235 60 M235 60 C236.83 74.84, 227.02 80.19, 215 80 M235 60 C235.55 74.9, 227.48 80.61, 215 80 M215 80 C165.31 83.1, 113.98 83.34, 20 80 M215 80 C157.36 80.88, 101.34 80.79, 20 80 M20 80 C8.2 78.21, 1.44 73.08, 0 60 M20 80 C7.94 78.64, 0.69 72.65, 0 60 M0 60 C0.13 49.2, 0.26 39.59, 0 20 M0 60 C-0.32 47.85, 1.08 35.55, 0 20 M0 20 C0.67 7.93, 5.95 1.96, 20 0 M0 20 C2.07 5.97, 8.22 1.17, 20 0" stroke="#e67700" stroke-width="1" fill="none"/></g><g transform="translate(525 220) rotate(0 112.5 30)"><text x="112.5" y="0" font-family="Virgil, Segoe UI Emoji" font-size="12px" fill="#7a4700" text-anchor="middle" style="white-space: pre;" direction="ltr" dominant-baseline="text-before-edge">SSH manager</text><text x="112.5" y="15.600000000000001" font-family="Virgil, Segoe UI Emoji" font-size="12px" fill="#7a4700" text-anchor="middle" style="white-space: pre;" direction="ltr" dominant-baseline="text-before-edge">(paramiko + ssh-agent)</text><text x="112.5" y="31.200000000000003" font-family="Virgil, Segoe UI Emoji" font-size="12px" fill="#7a4700" text-anchor="middle" style="white-space: pre;" direction="ltr" dominant-baseline="text-before-edge">Ed25519 · SFTP deploy</text></g><g stroke-linecap="round" transform="translate(290 309) rotate(0 107.5 40)"><path d="M20 0 C86.4 -3.77, 157.34 -1.81, 195 0 C208.01 2.32, 214.76 8.06, 215 20 C215.49 36.42, 217.64 44.68, 215 60 C217.92 73.67, 210.7 82.25, 195 80 C152.96 78.34, 112.73 78.36, 20 80 C3.24 82.81, -0.01 74.82, 0 60 C-0.54 49.76, -2.76 38.66, 0 20 C-2.29 9.6, 8.89 -2.92, 20 0" stroke="none" stroke-width="0" fill="#e7f5ff"/><path d="M20 0 C53.19 1.19, 89.18 -0.96, 195 0 M20 0 C75.97 0.41, 130.61 0.23, 195 0 M195 0 C209.89 1.13, 213.57 6.42, 215 20 M195 0 C206.36 0.56, 212.98 4.58, 215 20 M215 20 C215.72 29.64, 215.79 42.39, 215 60 M215 20 C215 36.62, 214.39 52.88, 215 60 M215 60 C214.02 71.64, 207.99 80.75, 195 80 M215 60 C216.77 75.03, 209.35 82.23, 195 80 M195 80 C143.12 82.48, 91.46 82.77, 20 80 M195 80 C139.23 80.12, 81.42 78.74, 20 80 M20 80 C8.43 81.63, 1.09 74.14, 0 60 M20 80 C7 78.61, 0.41 72.84, 0 60 M0 60 C-1.09 49.69, -1 42.64, 0 20 M0 60 C0.4 51.01, 0.24 39.98, 0 20 M0 20 C1.54 7.92, 6.85 -0.65, 20 0 M0 20 C0.83 6.43, 5.64 1.12, 20 0" stroke="#1971c2" stroke-width="1" fill="none"/></g><g transform="translate(295 320) rotate(0 102.5 30)"><text x="102.5" y="0" font-family="Virgil, Segoe UI Emoji" font-size="12px" fill="#1e3a5f" text-anchor="middle" style="white-space: pre;" direction="ltr" dominant-baseline="text-before-edge">/api/system router</text><text x="102.5" y="15.600000000000001" font-family="Virgil, Segoe UI Emoji" font-size="12px" fill="#1e3a5f" text-anchor="middle" style="white-space: pre;" direction="ltr" dominant-baseline="text-before-edge">mounts · health</text><text x="102.5" y="31.200000000000003" font-family="Virgil, Segoe UI Emoji" font-size="12px" fill="#1e3a5f" text-anchor="middle" style="white-space: pre;" direction="ltr" dominant-baseline="text-before-edge">scheduler-jobs</text></g><g stroke-linecap="round" transform="translate(520 309) rotate(0 117.5 40)"><path d="M20 0 C69.65 0.21, 111.64 -2.61, 215 0 C226.33 -3.11, 235.61 7.97, 235 20 C233.06 31.73, 232.42 46.5, 235 60 C233.39 73.09, 227.95 78.2, 215 80 C155.37 76.38, 93.27 74, 20 80 C4.48 77.25, 0.71 72.4, 0 60 C1.29 48.68, -1.5 30.97, 0 20 C2.11 8.09, 7.44 3.32, 20 0" stroke="none" stroke-width="0" fill="#e5dbff"/><path d="M20 0 C58.93 -1.58, 96.58 0.66, 215 0 M20 0 C71.81 -1.45, 123.05 -1.19, 215 0 M215 0 C227.3 -1.81, 235.33 5.68, 235 20 M215 0 C226.76 1.69, 234.91 8.04, 235 20 M235 20 C234.43 31.54, 233.61 43.65, 235 60 M235 20 C235.48 35.15, 234.37 50.02, 235 60 M235 60 C235.22 72.44, 228.96 81.31, 215 80 M235 60 C233.39 75.15, 226.63 79.25, 215 80 M215 80 C153.29 82.16, 89.65 82.49, 20 80 M215 80 C146.21 79.28, 77.72 78.61, 20 80 M20 80 C8.65 81.06, 0.74 75.19, 0 60 M20 80 C6.06 78.57, 0.13 73.04, 0 60 M0 60 C0.89 50.19, 0.94 45.7, 0 20 M0 60 C-0.88 52.17, -0.61 44.41, 0 20 M0 20 C-1.59 7.91, 7.74 0.73, 20 0 M0 20 C-0.41 6.89, 7.67 1.06, 20 0" stroke="#6741d9" stroke-width="1" fill="none"/></g><g transform="translate(525 320) rotate(0 112.5 30)"><text x="112.5" y="0" font-family="Virgil, Segoe UI Emoji" font-size="12px" fill="#3b0764" text-anchor="middle" style="white-space: pre;" direction="ltr" dominant-baseline="text-before-edge">SQLAlchemy ORM</text><text x="112.5" y="15.600000000000001" font-family="Virgil, Segoe UI Emoji" font-size="12px" fill="#3b0764" text-anchor="middle" style="white-space: pre;" direction="ltr" dominant-baseline="text-before-edge">tasks · hosts</text><text x="112.5" y="31.200000000000003" font-family="Virgil, Segoe UI Emoji" font-size="12px" fill="#3b0764" text-anchor="middle" style="white-space: pre;" direction="ltr" dominant-baseline="text-before-edge">job_runs (task_id nullable)</text></g><g transform="translate(285 410) rotate(0 235 10)"><text x="235" y="0" font-family="Virgil, Segoe UI Emoji" font-size="12px" fill="#555" text-anchor="middle" style="white-space: pre;" direction="ltr" dominant-baseline="text-before-edge">/api/tasks  ·  /api/hosts  ·  /api/job-runs  ·  /api/system</text></g><g transform="translate(285 438) rotate(0 235 9)"><text x="235" y="0" font-family="Cascadia, Segoe UI Emoji" font-size="11px" fill="#888" text-anchor="middle" style="white-space: pre;" direction="ltr" dominant-baseline="text-before-edge">Static files served  ·  SPA catch-all → index.html</text></g><g stroke-linecap="round" transform="translate(805 85) rotate(0 110 32.5)"><path d="M16.25 0 C92.73 -2.84, 164.9 -0.03, 203.75 0 C217.72 2.8, 222.22 2.78, 220 16.25 C222.23 26.33, 221.19 28.36, 220 48.75 C220.57 62.63, 215.4 64.62, 203.75 65 C162.41 63.59, 117.99 63.61, 16.25 65 C7.21 62.33, 3.59 60.16, 0 48.75 C1.23 36.52, 2.18 26.65, 0 16.25 C1.35 4.99, 7.05 -2.63, 16.25 0" stroke="none" stroke-width="0" fill="#d3f9d8"/><path d="M16.25 0 C53.18 -0.45, 89.83 -0.67, 203.75 0 M16.25 0 C90.75 -0.87, 166.07 0.59, 203.75 0 M203.75 0 C215.38 0.76, 221.67 3.64, 220 16.25 M203.75 0 C216.69 0.48, 222.04 7.36, 220 16.25 M220 16.25 C219.17 25.57, 219.83 31.62, 220 48.75 M220 16.25 C220.88 24.78, 219.72 32.66, 220 48.75 M220 48.75 C220.61 58.02, 213.8 66.93, 203.75 65 M220 48.75 C221.54 57.73, 212.43 66.55, 203.75 65 M203.75 65 C149.01 66.55, 89.72 64.67, 16.25 65 M203.75 65 C139.33 66.62, 73.84 65.22, 16.25 65 M16.25 65 C5.36 64.76, 1.28 59.87, 0 48.75 M16.25 65 C4.9 66.62, 1.58 58.56, 0 48.75 M0 48.75 C1.58 42.42, 0 32.45, 0 16.25 M0 48.75 C0.09 38.49, -0.43 26.88, 0 16.25 M0 16.25 C0.77 6.35, 5.96 1.64, 16.25 0 M0 16.25 C0.2 7.38, 3.63 -1.36, 16.25 0" stroke="#2f9e44" stroke-width="1" fill="none"/></g><g transform="translate(810 95) rotate(0 105 22.5)"><text x="105" y="0" font-family="Virgil, Segoe UI Emoji" font-size="12px" fill="#1a5c29" text-anchor="middle" style="white-space: pre;" direction="ltr" dominant-baseline="text-before-edge">SQLite (WAL mode)</text><text x="105" y="15.600000000000001" font-family="Virgil, Segoe UI Emoji" font-size="12px" fill="#1a5c29" text-anchor="middle" style="white-space: pre;" direction="ltr" dominant-baseline="text-before-edge">web_rsync.db</text></g><g stroke-linecap="round" transform="translate(805 168) rotate(0 110 32.5)"><path d="M16.25 0 C62.05 -5.45, 105.73 -0.23, 203.75 0 C216.04 -2.63, 223.08 2.69, 220 16.25 C218.5 21.25, 221.86 29.41, 220 48.75 C223.24 62.05, 212.64 67.76, 203.75 65 C150.12 61.73, 89.13 66.54, 16.25 65 C8.45 63.97, -2.89 57.74, 0 48.75 C-3.96 42.58, -3.58 33.25, 0 16.25 C-1.45 3.47, 5.6 -3.58, 16.25 0" stroke="none" stroke-width="0" fill="#d3f9d8"/><path d="M16.25 0 C54.9 0.71, 93.19 0.9, 203.75 0 M16.25 0 C80.64 1.04, 144.61 0.94, 203.75 0 M203.75 0 C212.79 1.82, 219.43 6.89, 220 16.25 M203.75 0 C212.49 1.6, 219.37 6.22, 220 16.25 M220 16.25 C217.94 27.21, 221.73 36.36, 220 48.75 M220 16.25 C219.48 23.46, 219.82 32.11, 220 48.75 M220 48.75 C221.8 58.82, 214.77 63.49, 203.75 65 M220 48.75 C218.16 57.85, 214.3 63.57, 203.75 65 M203.75 65 C141.24 66.08, 80.03 64.25, 16.25 65 M203.75 65 C132.99 65.83, 61.5 65.14, 16.25 65 M16.25 65 C5.59 64.19, 0.92 60.93, 0 48.75 M16.25 65 C3.96 66.59, 1.29 58.75, 0 48.75 M0 48.75 C0.32 42.71, -1.3 35.11, 0 16.25 M0 48.75 C0.82 39.29, 0.74 30.6, 0 16.25 M0 16.25 C1.65 6.34, 6.86 -0.98, 16.25 0 M0 16.25 C-1.04 3.24, 5.66 -1.41, 16.25 0" stroke="#2f9e44" stroke-width="1" fill="none"/></g><g transform="translate(810 178) rotate(0 105 22.5)"><text x="105" y="0" font-family="Virgil, Segoe UI Emoji" font-size="12px" fill="#1a5c29" text-anchor="middle" style="white-space: pre;" direction="ltr" dominant-baseline="text-before-edge">data/logs/</text><text x="105" y="15.600000000000001" font-family="Virgil, Segoe UI Emoji" font-size="12px" fill="#1a5c29" text-anchor="middle" style="white-space: pre;" direction="ltr" dominant-baseline="text-before-edge">per-run log files</text></g><g stroke-linecap="round" transform="translate(805 251) rotate(0 110 32.5)"><path d="M16.25 0 C68.86 -1.32, 121.57 -0.88, 203.75 0 C214.36 -0.86, 216.73 2.6, 220 16.25 C223.13 23.38, 223.71 37.67, 220 48.75 C218.71 61.47, 217.09 63.7, 203.75 65 C137.82 66.61, 67.48 69.03, 16.25 65 C2.48 65.61, -2.17 62.52, 0 48.75 C-0.78 34.95, -0.97 26.85, 0 16.25 C2.96 1.96, 4.14 2.66, 16.25 0" stroke="none" stroke-width="0" fill="#fff9db"/><path d="M16.25 0 C52.61 -2.12, 92.56 -1.54, 203.75 0 M16.25 0 C70.53 -0.79, 123.15 -0.46, 203.75 0 M203.75 0 C214.19 -1.12, 221.19 6.15, 220 16.25 M203.75 0 C212.89 -1.88, 221.3 5.09, 220 16.25 M220 16.25 C221.36 24.85, 220.27 37.09, 220 48.75 M220 16.25 C220.73 24.15, 220.57 29.57, 220 48.75 M220 48.75 C218.99 59.62, 215.74 64.05, 203.75 65 M220 48.75 C219.38 57.98, 216.17 65.19, 203.75 65 M203.75 65 C133.47 65.62, 66.34 63.82, 16.25 65 M203.75 65 C164.16 65.04, 126.16 65.06, 16.25 65 M16.25 65 C5.81 63.61, 0.57 57.99, 0 48.75 M16.25 65 C7.63 66.55, 1.01 58.94, 0 48.75 M0 48.75 C-0.94 36.51, 1.4 24.77, 0 16.25 M0 48.75 C-0.44 42.1, -0.09 34.32, 0 16.25 M0 16.25 C-1.48 6.34, 3.76 0.41, 16.25 0 M0 16.25 C-2.28 3.69, 7.68 -1.47, 16.25 0" stroke="#e67700" stroke-width="1" fill="none"/></g><g transform="translate(810 261) rotate(0 105 22.5)"><text x="105" y="0" font-family="Virgil, Segoe UI Emoji" font-size="12px" fill="#7a4700" text-anchor="middle" style="white-space: pre;" direction="ltr" dominant-baseline="text-before-edge">data/ssh/</text><text x="105" y="15.600000000000001" font-family="Virgil, Segoe UI Emoji" font-size="12px" fill="#7a4700" text-anchor="middle" style="white-space: pre;" direction="ltr" dominant-baseline="text-before-edge">Ed25519 key pair</text></g><g stroke-linecap="round" transform="translate(805 334) rotate(0 110 32.5)"><path d="M16.25 0 C75.68 -3.93, 137.4 -1.08, 203.75 0 C212.68 0.91, 217.59 2.51, 220 16.25 C219.4 25.51, 217.18 38.72, 220 48.75 C221.38 60.89, 214.33 66.84, 203.75 65 C155.83 64.75, 113.63 64.77, 16.25 65 C3.72 67.25, -1.45 60.1, 0 48.75 C2.4 41.01, 1.63 33.45, 0 16.25 C0.16 7.64, 2.69 1.71, 16.25 0" stroke="none" stroke-width="0" fill="#fff3bf"/><path d="M16.25 0 C54.33 2.8, 91.92 3.78, 203.75 0 M16.25 0 C58.42 1.12, 101.69 -0.11, 203.75 0 M203.75 0 C215.6 -0.07, 218.94 5.4, 220 16.25 M203.75 0 C213.29 -0.75, 218.63 3.95, 220 16.25 M220 16.25 C220.14 26.48, 218.17 37.83, 220 48.75 M220 16.25 C219.98 29.34, 219.31 42.03, 220 48.75 M220 48.75 C220.18 60.43, 212.71 64.61, 203.75 65 M220 48.75 C220.6 58.11, 213.44 66.81, 203.75 65 M203.75 65 C129.7 65.15, 56.64 63.4, 16.25 65 M203.75 65 C157.82 64.25, 113.82 64.98, 16.25 65 M16.25 65 C6.04 63.04, 0.22 59.04, 0 48.75 M16.25 65 C6.69 66.52, 0.73 59.13, 0 48.75 M0 48.75 C1.8 36.8, 0.1 23.43, 0 16.25 M0 48.75 C0.29 36.41, -0.92 23.04, 0 16.25 M0 16.25 C-0.61 6.33, 4.65 1.79, 16.25 0 M0 16.25 C1.08 4.15, 5.11 -1.52, 16.25 0" stroke="#e67700" stroke-width="1" fill="none"/></g><g transform="translate(810 344) rotate(0 105 22.5)"><text x="105" y="0" font-family="Virgil, Segoe UI Emoji" font-size="12px" fill="#7a4700" text-anchor="middle" style="white-space: pre;" direction="ltr" dominant-baseline="text-before-edge">data/patterns/</text><text x="105" y="15.600000000000001" font-family="Virgil, Segoe UI Emoji" font-size="12px" fill="#7a4700" text-anchor="middle" style="white-space: pre;" direction="ltr" dominant-baseline="text-before-edge">include / exclude lists</text></g><g stroke-linecap="round" transform="translate(805 417) rotate(0 110 40)"><path d="M20 0 C83.58 0.2, 144.45 -1.72, 200 0 C209.74 2.68, 218.44 3.67, 220 20 C222.73 26.45, 217.72 33.67, 220 60 C216.85 74.06, 210.33 77.79, 200 80 C142.12 84.52, 85.68 82.14, 20 80 C6.2 76.69, -0.73 71.43, 0 60 C-2.91 49.44, 2.96 33.53, 0 20 C-2.64 7.38, 9.69 0.76, 20 0" stroke="none" stroke-width="0" fill="#ffe3e3"/><path d="M20 0 C54.29 -0.08, 92.01 1.3, 200 0 M20 0 C86.76 -0.65, 155.36 -1.45, 200 0 M200 0 C211.76 0.99, 220.7 5.91, 220 20 M200 0 C212.43 0.37, 220.56 8.66, 220 20 M220 20 C219.62 34.8, 220.78 52.18, 220 60 M220 20 C219.25 34.57, 220.08 48.82, 220 60 M220 60 C221.37 74.98, 212.43 80.17, 200 80 M220 60 C221.83 71.98, 214.06 78.83, 200 80 M200 80 C157.38 79.71, 117.61 77.99, 20 80 M200 80 C151.78 80.48, 101.82 79.92, 20 80 M20 80 C7.52 81.46, -0.13 73.85, 0 60 M20 80 C7 81.48, 0.45 73.08, 0 60 M0 60 C-0.16 45.82, -1.89 32.28, 0 20 M0 60 C-1.02 45.95, 0.2 32.97, 0 20 M0 20 C0.26 7.57, 6.8 -0.83, 20 0 M0 20 C-0.16 5.86, 8.39 -1.58, 20 0" stroke="#c92a2a" stroke-width="1" fill="none"/></g><g transform="translate(810 427) rotate(0 105 30)"><text x="105" y="0" font-family="Virgil, Segoe UI Emoji" font-size="12px" fill="#862e2e" text-anchor="middle" style="white-space: pre;" direction="ltr" dominant-baseline="text-before-edge">Remote Hosts</text><text x="105" y="15.600000000000001" font-family="Virgil, Segoe UI Emoji" font-size="12px" fill="#862e2e" text-anchor="middle" style="white-space: pre;" direction="ltr" dominant-baseline="text-before-edge">(SSH / rsync targets)</text><text x="105" y="31.200000000000003" font-family="Virgil, Segoe UI Emoji" font-size="12px" fill="#862e2e" text-anchor="middle" style="white-space: pre;" direction="ltr" dominant-baseline="text-before-edge">authorized_keys</text></g><g stroke-linecap="round" transform="translate(805 515) rotate(0 110 32.5)"><path d="M16.25 0 C89.3 4.33, 161.86 4.83, 203.75 0 C216.51 -2.75, 219.3 2.33, 220 16.25 C220.3 23.26, 219.7 35.03, 220 48.75 C219.51 59.73, 216.02 65.93, 203.75 65 C131.25 67.77, 63.13 62.99, 16.25 65 C6.19 63.32, -0.01 62.46, 0 48.75 C0.38 39.44, -1.52 33.65, 0 16.25 C1.76 4.61, 6.98 -0.2, 16.25 0" stroke="none" stroke-width="0" fill="#e7f5ff"/><path d="M16.25 0 C53.76 1.14, 90.65 -1.09, 203.75 0 M16.25 0 C75.7 -0.8, 135.76 0.85, 203.75 0 M203.75 0 C214.41 -1.95, 218.46 3.91, 220 16.25 M203.75 0 C214.08 1.49, 217.89 6.27, 220 16.25 M220 16.25 C218.33 23.26, 218.62 30.3, 220 48.75 M220 16.25 C220.47 26.71, 220.81 38.94, 220 48.75 M220 48.75 C218.56 58.03, 214.64 65.73, 203.75 65 M220 48.75 C218.45 58.36, 212.59 65.45, 203.75 65 M203.75 65 C155.66 64.22, 108.26 62.54, 16.25 65 M203.75 65 C147.15 64.67, 89.14 64.83, 16.25 65 M16.25 65 C6.49 65.89, -0.48 61.15, 0 48.75 M16.25 65 C4.81 66.45, 0.17 59.52, 0 48.75 M0 48.75 C-1.38 37.39, 0.84 28.74, 0 16.25 M0 48.75 C-0.23 40.03, -0.57 30.48, 0 16.25 M0 16.25 C1.13 6.31, 6.45 0.56, 16.25 0 M0 16.25 C-1.4 5.07, 4.56 -1.63, 16.25 0" stroke="#1971c2" stroke-width="1" fill="none"/></g><g transform="translate(810 525) rotate(0 105 22.5)"><text x="105" y="0" font-family="Virgil, Segoe UI Emoji" font-size="12px" fill="#1e3a5f" text-anchor="middle" style="white-space: pre;" direction="ltr" dominant-baseline="text-before-edge">/proc/mounts</text><text x="105" y="15.600000000000001" font-family="Virgil, Segoe UI Emoji" font-size="12px" fill="#1e3a5f" text-anchor="middle" style="white-space: pre;" direction="ltr" dominant-baseline="text-before-edge">(container)</text></g><g stroke-linecap="round" transform="translate(10 620) rotate(0 507.5 25)"><path d="M12.5 0 C401.21 -1.16, 791.95 -0.63, 1002.5 0 C1009.02 -2.27, 1016.76 4.25, 1015 12.5 C1015.88 19.53, 1012.09 31.44, 1015 37.5 C1012.17 48.7, 1010.72 48.29, 1002.5 50 C637.53 53.47, 272.35 51.56, 12.5 50 C2.96 50.04, 3.59 47.8, 0 37.5 C2.34 33.51, -3.6 21.88, 0 12.5 C-1.8 7.19, 5.14 0.09, 12.5 0" stroke="none" stroke-width="0" fill="#ffe8cc"/><path d="M12.5 0 C212.64 -0.43, 411.3 -0.54, 1002.5 0 M12.5 0 C405.84 -0.95, 799.48 -1.24, 1002.5 0 M1002.5 0 C1009.9 1.68, 1016.56 5.13, 1015 12.5 M1002.5 0 C1009.81 1.4, 1016.96 4.46, 1015 12.5 M1015 12.5 C1015.76 15.75, 1016.64 20.65, 1015 37.5 M1015 12.5 C1014.34 18.3, 1016.13 23.58, 1015 37.5 M1015 37.5 C1015.14 44.41, 1010.46 51.91, 1002.5 50 M1015 37.5 C1013.22 45.66, 1010.26 49.76, 1002.5 50 M1002.5 50 C735.85 53.04, 469.17 53.1, 12.5 50 M1002.5 50 C677.77 51.41, 352.87 51.47, 12.5 50 M12.5 50 C3.43 49.01, -0.3 46.89, 0 37.5 M12.5 50 C2.72 49.87, 1.33 45.23, 0 37.5 M0 37.5 C1.93 30.82, -1.52 19.96, 0 12.5 M0 37.5 C-0.47 28.4, -1.16 19.17, 0 12.5 M0 12.5 C0.37 4.75, 5.56 -1.15, 12.5 0 M0 12.5 C-2.03 6.02, 2.55 0.49, 12.5 0" stroke="#d9480f" stroke-width="2" fill="none"/></g><g transform="translate(15 632) rotate(0 502.5 13)"><text x="502.5" y="0" font-family="Virgil, Segoe UI Emoji" font-size="14px" fill="#7c2d12" text-anchor="middle" style="white-space: pre;" direction="ltr" dominant-baseline="text-before-edge">Docker — multi-stage build, single container  (Vue static build + FastAPI API)</text></g><g stroke-linecap="round"><g transform="translate(245 215) rotate(0 15 0)"><path d="M0.18 -0.38 C5.27 -0.47, 25.03 -0.67, 29.98 -0.52 M-0.39 0.62 C4.67 0.58, 24.57 0.06, 29.54 -0.08" stroke="#1971c2" stroke-width="2" fill="none"/></g><g transform="translate(245 215) rotate(0 15 0)"><path d="M14.23 -5.63 C10.88 -4.57, 7.84 -3.64, 0.18 -0.38 M14.23 -5.63 C8.32 -3.59, 3.41 -1.1, 0.18 -0.38" stroke="#1971c2" stroke-width="2" fill="none"/></g><g transform="translate(245 215) rotate(0 15 0)"><path d="M14.32 4.63 C10.95 3.62, 7.9 2.47, 0.18 -0.38 M14.32 4.63 C8.35 2.6, 3.41 1.02, 0.18 -0.38" stroke="#1971c2" stroke-width="2" fill="none"/></g><g transform="translate(245 215) rotate(0 15 0)"><path d="M15.59 5.43 C17.9 4.27, 20.53 3.02, 29.54 -0.08 M15.59 5.43 C20.77 3.11, 26.98 1.33, 29.54 -0.08" stroke="#1971c2" stroke-width="2" fill="none"/></g><g transform="translate(245 215) rotate(0 15 0)"><path d="M15.32 -4.83 C17.68 -3.91, 20.37 -3.09, 29.54 -0.08 M15.32 -4.83 C20.63 -3.08, 26.94 -0.78, 29.54 -0.08" stroke="#1971c2" stroke-width="2" fill="none"/></g></g><mask/><g transform="translate(246 199) rotate(0 60 7)"><text x="60" y="0" font-family="Cascadia, Segoe UI Emoji" font-size="10px" fill="#1971c2" text-anchor="middle" style="white-space: pre;" direction="ltr" dominant-baseline="text-before-edge">HTTP/JSON · SSE</text></g><g stroke-linecap="round"><g transform="translate(775 457) rotate(0 15 0)"><path d="M0.4 0.1 C5.58 0.13, 25.49 0.39, 30.51 0.41" stroke="#c92a2a" stroke-width="2.5" fill="none" stroke-dasharray="8 10"/></g><g transform="translate(775 457) rotate(0 15 0)"><path d="M16.37 5.41 C19.35 5.05, 22.64 4.05, 30.51 0.41" stroke="#c92a2a" stroke-width="2.5" fill="none"/></g><g transform="translate(775 457) rotate(0 15 0)"><path d="M16.47 -4.85 C19.45 -3.14, 22.72 -2.06, 30.51 0.41" stroke="#c92a2a" stroke-width="2.5" fill="none"/></g></g><mask/><g transform="translate(710 443) rotate(0 80 7)"><text x="80" y="0" font-family="Cascadia, Segoe UI Emoji" font-size="10px" fill="#862e2e" text-anchor="middle" style="white-space: pre;" direction="ltr" dominant-baseline="text-before-edge">rsync (SSH) · paramiko SFTP</text></g><g stroke-linecap="round"><g transform="translate(775 117) rotate(0 15 0)"><path d="M-0.47 -0.53 C4.61 -0.56, 24.85 0.16, 29.94 0.23 M0.28 0.38 C5.33 0.16, 24.57 -0.63, 29.48 -0.61" stroke="#2f9e44" stroke-width="2" fill="none"/></g><g transform="translate(775 117) rotate(0 15 0)"><path d="M15.51 4.83 C17.59 3.71, 21.46 2.77, 29.48 -0.61 M15.51 4.83 C19.41 3.58, 23.42 2.01, 29.48 -0.61" stroke="#2f9e44" stroke-width="2" fill="none"/></g><g transform="translate(775 117) rotate(0 15 0)"><path d="M15.28 -5.43 C17.44 -4.47, 21.36 -3.33, 29.48 -0.61 M15.28 -5.43 C19.3 -3.76, 23.38 -2.4, 29.48 -0.61" stroke="#2f9e44" stroke-width="2" fill="none"/></g></g><mask/><g transform="translate(738 103) rotate(0 50 7)"><text x="50" y="0" font-family="Cascadia, Segoe UI Emoji" font-size="10px" fill="#1a5c29" text-anchor="middle" style="white-space: pre;" direction="ltr" dominant-baseline="text-before-edge">R/W</text></g><g stroke-linecap="round"><g transform="translate(505 349) rotate(0 150 96.5)"><path d="M-0.55 -0.13 C49.82 32.24, 251.09 161.08, 301.04 193.12" stroke="#1971c2" stroke-width="2.5" fill="none" stroke-dasharray="1.5 8"/></g><g transform="translate(505 349) rotate(0 150 96.5)"><path d="M271.76 186.55 C277.4 189.74, 283.75 187.91, 301.04 193.12" stroke="#1971c2" stroke-width="2.5" fill="none" stroke-dasharray="1.5 6"/></g><g transform="translate(505 349) rotate(0 150 96.5)"><path d="M282.84 169.27 C286.07 175.91, 290.18 177.57, 301.04 193.12" stroke="#1971c2" stroke-width="2.5" fill="none" stroke-dasharray="1.5 6"/></g></g><mask/><g transform="translate(610 410) rotate(0 30 7)"><text x="30" y="0" font-family="Cascadia, Segoe UI Emoji" font-size="10px" fill="#1971c2" text-anchor="middle" style="white-space: pre;" direction="ltr" dominant-baseline="text-before-edge">reads</text></g></svg>